<?xml version="1.0" standalone="no"?>
<!DOCTYPE svg PUBLIC "-//W3C//DTD SVG 20010904//EN"
 "http://www.w3.org/TR/2001/REC-SVG-20010904/DTD/svg10.dtd">
<svg version="1.0" xmlns="http://www.w3.org/2000/svg"
 width="174.000000pt" height="174.000000pt" viewBox="0 0 174.000000 174.000000"
 preserveAspectRatio="xMidYMid meet">
<metadata>
Created by potrace 1.14, written by Peter Selinger 2001-2017
</metadata>
<g transform="translate(0.000000,174.000000) scale(0.100000,-0.100000)"
fill="#000000" stroke="none">
<path d="M840 1585 c7 -8 8 -15 3 -15 -6 0 -8 -12 -5 -26 3 -16 -1 -29 -9 -35
-22 -13 -19 -108 5 -149 11 -19 25 -38 30 -42 6 -4 -1 -8 -15 -8 -31 0 -40
-26 -32 -97 6 -63 -11 -103 -84 -196 -74 -93 -92 -127 -97 -192 -1 -25 -5 -48
-8 -50 -3 -3 -54 -7 -114 -10 -197 -8 -349 -17 -353 -21 -2 -2 12 -4 32 -4 21
0 37 -4 37 -9 0 -5 28 -8 62 -5 106 7 1075 6 1099 -1 16 -6 20 -4 13 6 -6 12
-5 12 9 0 12 -9 17 -10 17 -2 0 7 5 9 13 4 6 -4 23 -9 37 -10 22 -2 23 -1 5 7
-19 8 -19 9 3 9 12 1 22 -4 22 -10 0 -12 106 -7 118 6 4 4 -8 5 -25 2 -18 -3
-35 -1 -39 4 -3 5 -11 9 -17 9 -7 0 -6 -4 3 -10 12 -8 10 -10 -8 -10 -13 0
-20 4 -17 10 4 6 -13 10 -42 11 -26 0 -75 2 -108 4 -33 3 -97 6 -142 7 -49 1
-83 7 -84 13 -6 79 -32 136 -95 206 -92 103 -119 152 -119 216 0 29 -4 53 -9
53 -4 0 -6 6 -3 14 3 8 -3 23 -14 34 -24 26 -24 40 1 72 25 32 25 76 -1 119
-11 18 -18 40 -15 47 3 8 1 14 -5 14 -6 0 -8 4 -5 9 11 18 -7 41 -31 41 -22 0
-24 -2 -13 -15z"/>
<path d="M90 740 c-9 -6 -10 -10 -3 -10 6 0 15 5 18 10 8 12 4 12 -15 0z"/>
<path d="M124 736 c-10 -10 -1 -13 45 -13 46 0 48 1 13 4 -23 2 -40 8 -37 14
9 14 -8 10 -21 -5z"/>
<path d="M108 631 c-123 -61 -35 -256 102 -226 42 9 64 33 49 51 -10 13 -14
12 -29 -1 -25 -23 -81 -29 -103 -13 -30 22 -38 91 -16 127 33 55 83 61 122 15
21 -24 23 -24 24 -6 4 51 -89 84 -149 53z m138 -196 c-11 -8 -24 -15 -30 -15
-5 0 -1 7 10 15 10 8 24 14 29 14 6 0 1 -6 -9 -14z"/>
<path d="M1062 640 l-34 -5 21 -27 c24 -31 26 -38 8 -38 -24 0 -57 -45 -57
-77 0 -42 57 -93 104 -93 67 0 110 67 71 110 -14 16 -13 17 20 15 19 -2 38 1
41 6 3 5 9 7 14 4 4 -3 14 3 21 12 12 14 11 15 -11 10 -25 -7 -25 -7 1 6 22
10 24 14 13 24 -10 10 -15 10 -22 -2 -4 -9 -26 -17 -48 -19 -21 -2 -51 -7 -65
-10 -21 -6 -29 -2 -43 19 l-18 27 41 -4 c27 -2 41 1 41 8 0 27 -45 43 -98 34z
m40 -112 c-12 -12 -5 -36 17 -58 13 -13 14 -13 9 1 -8 20 6 44 21 35 34 -21
-6 -76 -56 -76 -18 0 -33 1 -33 3 0 1 -4 16 -9 34 -8 28 -6 35 16 57 14 14 30
23 35 20 6 -4 6 -10 0 -16z m66 -88 c-14 -22 -49 -35 -70 -27 -7 3 -1 6 13 6
14 1 34 10 44 21 23 26 29 26 13 0z"/>
<path d="M1342 642 c-16 -5 -15 -20 3 -38 8 -9 15 -11 15 -5 0 6 14 11 30 11
17 0 30 -2 30 -4 0 -2 -21 -43 -46 -90 -33 -65 -42 -91 -34 -101 12 -15 156
-19 165 -4 4 5 11 9 16 9 6 0 8 -4 5 -9 -3 -5 6 -8 19 -8 14 0 28 3 31 8 3 5
10 9 15 9 6 0 8 -4 5 -9 -3 -5 4 -9 17 -9 20 0 22 4 19 49 -5 59 -29 87 -62
69 -13 -7 -25 -8 -29 -3 -3 5 -11 9 -18 8 -15 0 -30 -15 -15 -15 14 0 16 -66
3 -75 -5 -3 -16 1 -24 10 -13 13 -16 13 -27 0 -14 -17 -46 -20 -55 -5 -3 5 1
23 10 40 9 17 13 36 9 42 -4 6 -3 8 3 5 5 -3 20 16 33 44 18 37 21 52 12 61
-11 11 -104 19 -130 10z m234 -147 c-3 -8 -1 -15 4 -15 15 0 11 -32 -5 -54
-14 -18 -15 -17 -15 25 0 41 5 59 18 59 2 0 2 -7 -2 -15z"/>
<path d="M600 567 c0 -14 -8 -31 -17 -37 -13 -8 -14 -13 -5 -16 7 -3 12 -24
12 -50 0 -38 4 -46 25 -56 20 -9 28 -9 38 1 9 10 8 15 -5 25 -19 14 -25 56 -7
56 5 0 7 5 3 12 -5 7 -2 9 7 4 8 -4 6 -1 -3 7 -10 8 -18 23 -18 34 0 11 -7 26
-15 33 -13 11 -15 8 -15 -13z"/>
<path d="M435 570 c-8 -13 13 -40 31 -40 19 0 18 15 -2 34 -18 19 -21 19 -29
6z"/>
<path d="M515 570 c-8 -13 12 -40 31 -40 20 0 17 14 -5 34 -13 12 -21 14 -26
6z"/>
<path d="M420 521 c0 -4 3 -11 7 -15 12 -12 13 -47 3 -67 -9 -15 -7 -19 5 -19
9 0 14 -4 11 -8 -3 -5 9 -9 26 -10 21 0 27 2 19 7 -8 5 -13 26 -13 49 0 22 -5
45 -11 50 -19 14 -47 22 -47 13z"/>
<path d="M503 507 c8 -12 13 -44 12 -72 -3 -66 -3 -65 -20 -59 -19 8 -19 -3
-1 -21 12 -12 15 -12 20 0 3 8 11 15 18 15 9 0 9 -3 -2 -10 -8 -5 -12 -11 -9
-14 2 -3 11 -1 19 4 9 6 15 32 16 78 3 74 -6 93 -47 99 -18 3 -18 1 -6 -20z"/>
<path d="M682 514 c-29 -20 -28 -55 4 -88 36 -35 124 -37 91 -2 -6 7 -22 10
-35 8 -14 -3 -28 1 -32 9 -10 15 -4 29 11 29 6 0 7 -4 4 -10 -4 -6 10 -10 34
-10 33 0 41 4 41 18 0 26 -42 62 -71 62 -13 0 -35 -7 -47 -16z m78 -24 c0 -5
-12 -10 -27 -10 -22 0 -25 2 -13 10 20 13 40 13 40 0z"/>
<path d="M810 520 c-10 -7 -11 -10 -2 -10 7 0 12 -15 12 -39 0 -22 -5 -42 -12
-44 -7 -3 -2 -6 12 -6 19 -1 22 -3 10 -11 -10 -6 -6 -9 18 -8 17 1 29 5 26 10
-3 4 2 8 11 8 9 0 14 -4 11 -9 -3 -4 8 -8 23 -7 24 1 27 4 18 15 -7 8 -11 16
-9 18 7 11 -1 61 -13 77 -12 16 -19 17 -38 9 -13 -6 -30 -7 -38 -3 -8 5 -21 5
-29 0z m75 -20 c-3 -5 -11 -10 -16 -10 -6 0 -7 5 -4 10 3 6 11 10 16 10 6 0 7
-4 4 -10z m5 -45 c0 -16 -6 -25 -15 -25 -15 0 -21 31 -8 43 13 14 23 6 23 -18z"/>
<path d="M268 513 c6 -2 12 -22 12 -43 0 -49 20 -65 85 -65 49 0 52 1 41 20
-6 11 -11 31 -11 45 1 31 -17 50 -45 50 -19 0 -20 -2 -6 -15 13 -13 14 -28 7
-87 -1 -5 -6 -8 -12 -8 -8 0 -7 5 1 15 11 13 10 14 -5 9 -15 -6 -17 -2 -13 28
4 40 -10 58 -44 57 -13 0 -17 -3 -10 -6z"/>
<path d="M1646 442 c-7 -12 32 -48 41 -38 8 8 -8 38 -24 43 -6 2 -14 0 -17 -5z"/>
<path d="M358 275 c-5 -23 -2 -27 18 -24 4 0 11 -5 16 -13 6 -9 8 -6 6 12 -3
23 -20 50 -31 50 -3 0 -7 -11 -9 -25z"/>
<path d="M428 288 c7 -7 12 -17 12 -22 0 -6 -5 -4 -10 4 -7 11 -10 12 -10 2 0
-7 7 -20 15 -28 13 -14 16 -14 21 1 6 13 8 14 15 3 7 -10 9 -10 9 2 -1 23 -25
50 -46 50 -14 0 -15 -3 -6 -12z"/>
<path d="M502 275 c-1 -14 3 -25 9 -25 5 0 7 -5 4 -11 -4 -6 2 -5 14 3 18 11
19 15 7 32 -19 29 -31 30 -34 1z"/>
<path d="M564 284 c3 -9 6 -21 6 -27 0 -7 4 -6 10 3 8 12 10 10 11 -10 l1 -25
7 25 c4 15 2 30 -5 38 -18 17 -37 15 -30 -4z"/>
<path d="M628 275 c-4 -17 -1 -25 8 -25 8 0 14 -4 14 -10 0 -5 4 -10 10 -10 5
0 7 7 3 16 -3 9 0 20 8 25 10 6 7 9 -11 9 -20 0 -22 2 -10 10 13 8 13 10 -1
10 -10 0 -19 -10 -21 -25z"/>
<path d="M690 282 c0 -11 9 -27 19 -36 19 -17 19 -17 14 3 -3 13 -1 21 7 21 7
0 6 5 -4 15 -20 20 -36 19 -36 -3z"/>
<path d="M756 285 c-3 -8 1 -21 9 -29 8 -7 11 -17 7 -20 -3 -4 1 -4 11 0 20 7
21 18 7 45 -13 23 -26 25 -34 4z"/>
<path d="M823 277 c0 -13 7 -29 17 -34 14 -10 16 -8 12 13 -2 13 -9 24 -14 24
-5 0 -6 5 -3 10 3 6 2 10 -3 10 -5 0 -9 -11 -9 -23z"/>
<path d="M874 275 c0 -14 7 -25 14 -25 7 0 10 -5 6 -12 -4 -7 -3 -8 4 -4 12 7
12 33 -1 54 -13 20 -25 14 -23 -13z"/>
<path d="M936 276 c9 -29 28 -39 35 -18 6 18 -8 39 -28 39 -9 0 -11 -7 -7 -21z"/>
<path d="M998 275 c2 -14 11 -25 21 -25 14 0 14 -2 1 -10 -8 -5 -10 -10 -5
-10 6 0 17 5 25 10 12 7 12 10 1 10 -7 0 -11 6 -8 14 6 15 -11 36 -29 36 -7 0
-9 -10 -6 -25z"/>
<path d="M1060 272 c0 -14 3 -22 7 -19 3 4 12 2 20 -4 7 -6 13 -10 14 -8 6 31
6 38 -2 33 -5 -3 -9 1 -9 9 0 7 -7 14 -15 14 -9 0 -15 -10 -15 -25z"/>
<path d="M1126 285 c-3 -8 1 -21 9 -29 8 -7 11 -17 7 -20 -3 -4 1 -4 11 0 21
8 22 30 3 50 -18 18 -22 18 -30 -1z"/>
<path d="M1192 277 c1 -13 8 -29 15 -36 10 -9 13 -7 13 14 0 14 -5 25 -11 25
-5 0 -7 5 -4 10 3 6 1 10 -4 10 -6 0 -10 -10 -9 -23z"/>
<path d="M1244 276 c-1 -14 4 -27 12 -30 8 -3 17 -7 21 -8 3 -2 7 7 8 19 1 17
-1 20 -11 12 -9 -8 -11 -5 -7 10 3 14 1 21 -8 21 -8 0 -15 -11 -15 -24z"/>
<path d="M1310 280 c0 -12 7 -28 15 -36 13 -14 16 -14 22 2 7 18 -6 45 -25 52
-7 2 -12 -6 -12 -18z"/>
<path d="M110 169 c0 -4 21 -5 46 -3 27 3 44 2 40 -4 -3 -5 21 -10 52 -11 31
-2 68 -4 82 -5 14 -1 30 2 37 6 6 5 14 5 18 -2 3 -5 13 -10 21 -10 10 0 12 5
8 13 -5 7 0 6 11 -3 26 -22 943 -23 969 -1 10 8 20 11 26 5 5 -5 44 -7 87 -5
69 4 73 6 38 12 -36 6 -34 7 18 6 31 -1 57 1 57 6 0 12 -115 8 -129 -5 -8 -7
-11 -8 -8 -3 3 7 -197 10 -591 10 -387 0 -600 -4 -604 -10 -5 -6 -8 -5 -8 3 0
10 -21 13 -85 11 -47 -1 -85 -5 -85 -10z m148 -6 c-10 -2 -26 -2 -35 0 -10 3
-2 5 17 5 19 0 27 -2 18 -5z"/>
<path d="M1630 176 c0 -2 7 -7 16 -10 8 -3 12 -2 9 4 -6 10 -25 14 -25 6z"/>
</g>
</svg>
